<?xml version="1.0" encoding="UTF-8"?><svg xmlns="http://www.w3.org/2000/svg" xmlns:xlink="http://www.w3.org/1999/xlink" width="1440.0" height="1200.0" viewBox="-90.0 -50.0 1440.0 1200.0" version="1.1">
<rect x="-90.0" y="-50.0" width="1440.0" height="1200.0" fill="rgb(255,255,255)"/>
<polygon id="s602883823" points="-59.99138,-20.0 1320.0,-20.0 1319.9963,1119.9999 -59.99997,1120.0 " fill="none" stroke-width="2.0" stroke="rgb(0,0,0)" stroke-dasharray="7.0 7.0">
<g id="t602883823">
<text x="536.0" y="7.2874756" font-family="Helvetica" font-weight="bold" fill="rgb(0,0,0)" font-size="25" textLength="188.0">Syscall Sequence</text>
<path id="s746844567" d="M 536.0,8.287476 724.0,8.287476 " fill="none" stroke-width="2.0" stroke="rgb(0,0,0)"/>
</g>
</polygon>
<g id="s297451980">
<polygon id="s297451980" points="60.0,100.0 179.99956,100.0 180.0,160.0 59.999996,160.0 " fill="none" stroke-width="2.0" stroke="rgb(0,0,0)"/>
<g id="t297451980">
<text x="92.0" y="135.668" font-family="Helvetica" font-weight="bold" fill="rgb(0,0,0)" font-size="16" textLength="56.0">Process</text>
</g>
</g>
<g id="s286608488">
<polygon id="s286608488" points="60.00001,240.0 180.00009,240.0 180.00006,279.9999 59.999996,280.0 " fill="none" stroke-width="2.0" stroke="rgb(0,0,0)"/>
<g id="t286608488">
<text x="99.500046" y="264.447" font-family="Helvetica" fill="rgb(0,0,0)" font-size="14" textLength="41.0">Syscall</text>
</g>
</g>
<g id="s593026069">
<polygon id="s593026069" points="300.0,100.0 439.99945,100.0 440.0,159.99997 300.0,160.0 " fill="none" stroke-width="2.0" stroke="rgb(0,0,0)"/>
<g id="t593026069">
<text x="346.0" y="135.668" font-family="Helvetica" font-weight="bold" fill="rgb(0,0,0)" font-size="16" textLength="48.0">Kernel</text>
</g>
</g>
<g id="s757222186">
<polygon id="s757222186" points="300.0,240.0 439.99985,240.0 440.0,280.0 300.0,280.0 " fill="none" stroke-width="2.0" stroke="rgb(0,0,0)"/>
<g id="t757222186">
<text x="316.0" y="264.447" font-family="Helvetica" fill="rgb(0,0,0)" font-size="14" textLength="108.0">Interrupt Handler</text>
</g>
</g>
<g id="s922549531">
<polygon id="s922549531" points="260.0,340.0 479.99994,340.0 479.99994,420.0 260.0,420.0 " fill="none" stroke-width="2.0" stroke="rgb(0,0,0)"/>
<g id="t922549531">
<text x="294.49997" y="365.589" font-family="Helvetica" fill="rgb(0,0,0)" font-size="14" textLength="151.0">Loop registered handlers</text>
<path id="s429133700" d="M 260.0,379.99997 479.99994,379.99997 " fill="none" stroke-width="2.0" stroke="rgb(0,0,0)"/>
<text x="270.99997" y="403.305" font-family="Helvetica" fill="rgb(0,0,0)" font-size="14" textLength="198.0">Until one signals Syscall handled</text>
</g>
</g>
<g id="s481832632">
<polygon id="s481832632" points="300.0,460.0 440.0,460.0 439.99988,520.0 300.0,520.0 " fill="none" stroke-width="2.0" stroke="rgb(0,0,0)"/>
<g id="t481832632">
<text x="323.5" y="494.447" font-family="Helvetica" fill="rgb(0,0,0)" font-size="14" textLength="93.0">Switch process</text>
</g>
</g>
<g id="s774521739">
<polygon id="s774521739" points="260.0,560.0 479.99988,560.0 479.99988,620.0 260.0,620.0 " fill="none" stroke-width="2.0" stroke="rgb(0,0,0)"/>
<g id="t774521739">
<text x="281.49994" y="594.447" font-family="Helvetica" fill="rgb(0,0,0)" font-size="14" textLength="177.0">Call process's Syscall handler</text>
</g>
</g>
<g id="s367844415">
<polygon id="s367844415" points="760.0,100.000015 959.9999,100.000015 960.0,160.00002 760.0,160.0 " fill="none" stroke-width="2.0" stroke="rgb(0,0,0)"/>
<g id="t367844415">
<text x="801.5" y="135.66801" font-family="Helvetica" font-weight="bold" fill="rgb(0,0,0)" font-size="16" textLength="117.0">Handler Process</text>
</g>
</g>
<g id="s414132492">
<polygon id="s414132492" points="760.0,560.0007 960.0,560.0007 959.9999,620.0007 760.0,620.0007 " fill="none" stroke-width="2.0" stroke="rgb(0,0,0)"/>
<g id="t414132492">
<text x="773.5" y="594.44763" font-family="Helvetica" fill="rgb(0,0,0)" font-size="14" textLength="173.0">Accept / handle the Syscall?</text>
</g>
</g>
<g id="s392717436">
<polygon id="s392717436" points="299.99988,920.0 439.99988,920.0 439.99988,979.99945 299.99988,979.99945 " fill="none" stroke-width="2.0" stroke="rgb(0,0,0)"/>
<g id="t392717436">
<text x="320.49988" y="954.4468" font-family="Helvetica" fill="rgb(0,0,0)" font-size="14" textLength="99.0">End of interrupt</text>
</g>
</g>
<g id="s972603653">
<polygon id="s972603653" points="60.000008,920.0 180.00005,920.0 179.9998,979.9992 60.000008,979.99945 " fill="none" stroke-width="2.0" stroke="rgb(0,0,0)"/>
<g id="t972603653">
<text x="92.00003" y="954.4468" font-family="Helvetica" fill="rgb(0,0,0)" font-size="14" textLength="56.0">Continue</text>
</g>
</g>
<g id="s176344355">
<polygon id="s176344355" points="780.0,700.0007 939.99994,700.0007 940.0,760.00055 780.0,760.0007 " fill="none" stroke-width="2.0" stroke="rgb(0,0,0)"/>
<g id="t176344355">
<text x="829.5" y="734.44763" font-family="Helvetica" fill="rgb(0,0,0)" font-size="14" textLength="61.0">Deferred?</text>
</g>
</g>
<g id="s744378965">
<polygon id="s744378965" points="1060.0002,560.0007 1200.0007,560.0007 1200.0007,620.0003 1060.0002,620.0007 " fill="none" stroke-width="2.0" stroke="rgb(0,0,0)"/>
<g id="t744378965">
<text x="1074.5005" y="594.44763" font-family="Helvetica" fill="rgb(0,0,0)" font-size="14" textLength="111.0">Return unhandled</text>
</g>
</g>
<g id="s603792490">
<polygon id="s603792490" points="780.0,820.0007 940.0,820.0007 940.0,880.00055 780.0,880.0007 " fill="none" stroke-width="2.0" stroke="rgb(0,0,0)"/>
<g id="t603792490">
<text x="810.0" y="854.44763" font-family="Helvetica" fill="rgb(0,0,0)" font-size="14" textLength="100.0">Set result values</text>
</g>
</g>
<g id="s144172378">
<polygon id="s144172378" points="279.99988,820.0 459.99982,820.0 459.99982,879.99994 279.99988,880.0 " fill="none" stroke-width="2.0" stroke="rgb(0,0,0)"/>
<g id="t144172378">
<text x="298.49985" y="854.447" font-family="Helvetica" fill="rgb(0,0,0)" font-size="14" textLength="143.0">Switch back to process</text>
</g>
</g>
<g id="s131923291">
<ellipse id="s131923291" cx="860.0" cy="1000.0007" rx="60.0" ry="60.0" fill="none" stroke-width="2.0" stroke="rgb(0,0,0)"/>
<g id="t131923291">
<text x="839.0" y="995.0186" font-family="Helvetica" fill="rgb(0,0,0)" font-size="14" textLength="42.0">Return</text>
<text x="834.5" y="1013.87665" font-family="Helvetica" fill="rgb(0,0,0)" font-size="14" textLength="51.0">(normal)</text>
</g>
</g>
<g id="s1017951826">
<ellipse id="s1017951826" cx="1130.0002" cy="730.0007" rx="50.0" ry="50.0" fill="none" stroke-width="2.0" stroke="rgb(0,0,0)"/>
<g id="t1017951826">
<text x="1109.0002" y="725.0186" font-family="Helvetica" fill="rgb(0,0,0)" font-size="14" textLength="42.0">Return</text>
<text x="1100.0002" y="743.87665" font-family="Helvetica" fill="rgb(0,0,0)" font-size="14" textLength="60.0">(deferred)</text>
</g>
</g>
<g id="s69650196">
<polygon id="s69650196" points="300.0,700.0 440.0,700.0 440.0,759.9999 300.0,760.0 " fill="none" stroke-width="2.0" stroke="rgb(0,0,0)"/>
<g id="t69650196">
<text x="339.5" y="734.447" font-family="Helvetica" fill="rgb(0,0,0)" font-size="14" textLength="61.0">Deferred?</text>
</g>
</g>
<g id="s695825522">
<polygon id="s695825522" points="499.99997,700.0 719.99963,700.0 720.0001,759.9998 499.99997,760.0 " fill="none" stroke-width="2.0" stroke="rgb(0,0,0)"/>
<g id="t695825522">
<text x="516.00006" y="734.447" font-family="Helvetica" fill="rgb(0,0,0)" font-size="14" textLength="188.0">Deschedule / sleep indefinitely</text>
</g>
</g>
<g id="s294037830">
<ellipse id="s294037830" cx="610.0" cy="890.0" rx="70.0" ry="70.0" fill="none" stroke-width="2.0" stroke="rgb(0,0,0)"/>
<g id="t294037830">
<text x="580.5" y="885.018" font-family="Helvetica" fill="rgb(0,0,0)" font-size="14" textLength="59.0">Return to</text>
<text x="558.0" y="903.87604" font-family="Helvetica" fill="rgb(0,0,0)" font-size="14" textLength="104.0">different process</text>
</g>
</g>
<g id="la855123089">
<path id="s855123089" d="M 120.0,160.0 120.000046,240.0 " fill="none" stroke-width="2.0" stroke="rgb(0,0,0)"/>
<g id="t855123089"/>
</g>
<g id="la670167030">
<path id="s670167030" d="M 370.0,159.99998 369.99994,240.0 " fill="none" stroke-width="2.0" stroke="rgb(0,0,0)"/>
<g id="t670167030"/>
</g>
<g id="la124014583">
<path id="s124014583" d="M 370.0,280.0 369.99997,340.0 " fill="none" stroke-width="2.0" stroke="rgb(0,0,0)"/>
<g id="t124014583"/>
</g>
<g id="la102596196">
<path id="s102596196" d="M 369.99997,420.0 370.0,460.0 " fill="none" stroke-width="2.0" stroke="rgb(0,0,0)"/>
<g id="t102596196"/>
</g>
<g id="la1013545165">
<path id="s1013545165" d="M 369.99994,520.0 369.99994,560.0 " fill="none" stroke-width="2.0" stroke="rgb(0,0,0)"/>
<g id="t1013545165"/>
</g>
<g id="la271920285">
<path id="s271920285" d="M 860.0,160.00002 860.0,560.0007 " fill="none" stroke-width="2.0" stroke="rgb(0,0,0)"/>
<g id="t271920285"/>
</g>
<g id="la390403458">
<path id="s390403458" d="M 369.99994,620.0 369.99994,660.0 520.0,660.0 520.0,380.0 479.99994,380.0 " fill="none" stroke-width="2.0" stroke="rgb(0,0,0)"/>
<path id="s81593197" d="M 489.17804,372.26938 479.99994,380.0 489.17804,387.73062 " fill="none" stroke-width="2.0" stroke="rgb(0,0,0)"/>
<g id="t390403458"/>
</g>
<g id="la950666514">
<path id="s950666514" d="M 479.99988,590.0 760.0,590.0007 " fill="none" stroke-width="2.0" stroke="rgb(0,0,0)"/>
<path id="s1014225826" d="M 750.8219,597.73126 760.0,590.0007 750.8219,582.27 " fill="none" stroke-width="2.0" stroke="rgb(0,0,0)"/>
<g id="t950666514"/>
</g>
<g id="la428078227">
<path id="s428078227" d="M 180.00008,259.99994 300.0,260.0 " fill="none" stroke-width="2.0" stroke="rgb(0,0,0)"/>
<path id="s193728563" d="M 290.8219,267.73062 300.0,260.0 290.8219,252.26938 " fill="none" stroke-width="2.0" stroke="rgb(0,0,0)"/>
<g id="t428078227"/>
</g>
<g id="la444265038">
<path id="s444265038" d="M 120.00003,279.99994 120.00003,920.0 " fill="none" stroke-width="2.0" stroke="rgb(0,0,0)" stroke-dasharray="7.0 7.0"/>
<g id="t444265038"/>
</g>
<g id="la240673616">
<path id="s240673616" d="M 299.99988,949.99963 179.99992,949.99963 " fill="none" stroke-width="2.0" stroke="rgb(0,0,0)"/>
<path id="s302292976" d="M 189.17802,942.26904 179.99992,949.99963 189.17802,957.7302 " fill="none" stroke-width="2.0" stroke="rgb(0,0,0)"/>
<g id="t240673616"/>
</g>
<g id="la735827171">
<path id="s735827171" d="M 859.99994,620.0007 860.0,700.0007 " fill="none" stroke-width="2.0" stroke="rgb(0,0,0)"/>
<g id="t735827171">
<text x="864.98193" y="638.85864" font-family="Helvetica" fill="rgb(0,0,0)" font-size="14" textLength="22.0">Yes</text>
</g>
</g>
<g id="la839450336">
<path id="s839450336" d="M 959.99994,590.0007 1060.0002,590.0007 " fill="none" stroke-width="2.0" stroke="rgb(0,0,0)"/>
<g id="t839450336">
<text x="964.98193" y="580.57166" font-family="Helvetica" fill="rgb(0,0,0)" font-size="14" textLength="19.0">No</text>
</g>
</g>
<g id="la213710233">
<path id="s213710233" d="M 860.0,760.0007 860.0,820.0007 " fill="none" stroke-width="2.0" stroke="rgb(0,0,0)"/>
<g id="t213710233">
<text x="836.018" y="778.85864" font-family="Helvetica" fill="rgb(0,0,0)" font-size="14" textLength="19.0">No</text>
</g>
</g>
<g id="la700766537">
<path id="s700766537" d="M 369.99988,880.0 369.99988,920.0 " fill="none" stroke-width="2.0" stroke="rgb(0,0,0)"/>
<g id="t700766537"/>
</g>
<g id="la211771486">
<path id="s211771486" d="M 860.0,880.00055 860.0,940.0007 " fill="none" stroke-width="2.0" stroke="rgb(0,0,0)"/>
<g id="t211771486"/>
</g>
<g id="la893049565">
<path id="s893049565" d="M 940.0,730.0007 1080.0007,730.0007 " fill="none" stroke-width="2.0" stroke="rgb(0,0,0)"/>
</g>
<g id="la771198311">
<path id="s771198311" d="M 369.99994,620.0 370.0,700.0 " fill="none" stroke-width="2.0" stroke="rgb(0,0,0)"/>
</g>
<g id="la241573072">
<path id="s241573072" d="M 370.0,759.99994 369.99985,820.0 " fill="none" stroke-width="2.0" stroke="rgb(0,0,0)"/>
<g id="t241573072">
<text x="346.018" y="778.858" font-family="Helvetica" fill="rgb(0,0,0)" font-size="14" textLength="19.0">No</text>
</g>
</g>
<g id="la967392637">
<path id="s967392637" d="M 440.0,729.99994 499.99997,730.0 " fill="none" stroke-width="2.0" stroke="rgb(0,0,0)"/>
<g id="t967392637">
<text x="444.982" y="748.858" font-family="Helvetica" fill="rgb(0,0,0)" font-size="14" textLength="22.0">Yes</text>
</g>
</g>
<g id="la730968353">
<path id="s730968353" d="M 610.00006,759.9999 610.0,820.0 " fill="none" stroke-width="2.0" stroke="rgb(0,0,0)"/>
</g>
</svg>
